<svg width="32" height="32" viewBox="0 0 32 32" fill="none" xmlns="http://www.w3.org/2000/svg">
<path d="M30.9515 4.81714C31.6677 5.41107 31.8252 5.7787 32 6.68743C31.6589 8.73393 29.9819 10.1919 28.6092 11.6527C28.1229 12.1718 27.6484 12.696 27.1826 13.2334C25.517 15.1506 23.7973 16.9957 21.9983 18.7873C21.6414 19.143 21.2857 19.4999 20.9302 19.8569C19.8312 20.9566 18.7231 22.0335 17.5407 23.0443C16.6455 23.8204 15.7973 24.6502 14.9421 25.47C13.1624 27.1523 13.1624 27.1523 11.8378 27.4022C10.6009 27.1926 10.0539 26.549 9.18822 25.6736C8.92797 25.4135 8.66761 25.1534 8.40716 24.8935C7.98649 24.4733 7.56682 24.0524 7.15051 23.6279C6.42706 22.8932 5.69085 22.2333 4.8809 21.593C4.50121 21.217 4.12353 20.839 3.74739 20.4595C3.50496 20.236 3.26107 20.0141 3.01593 19.7936C2.82656 19.6226 2.82656 19.6226 2.63337 19.4482C2.37381 19.2147 2.11345 18.9821 1.85231 18.7504C0.993912 17.9718 0.264801 17.2603 0.00594077 16.0884C-0.0211402 15.063 0.0178684 14.6876 0.701098 13.871C1.63184 13.3464 2.01817 13.2147 3.06729 13.4318C3.7481 13.8866 4.30715 14.4372 4.8809 15.0187C5.03081 15.1683 5.18073 15.3179 5.33518 15.4721C5.63849 15.776 5.94075 16.0809 6.24199 16.3869C6.67661 16.8147 7.12428 17.2147 7.58714 17.6116C8.46487 18.3649 9.27075 19.1777 10.0826 20.0008C10.587 20.4975 11.1134 20.9445 11.6819 21.3663C12.5469 21.072 13.0582 20.743 13.6797 20.077C14.3995 19.3112 15.1648 18.6244 15.9578 17.9367C19.437 14.892 22.6198 11.5969 25.5107 7.99096C25.9465 7.4544 26.3865 6.92145 26.8284 6.38988C26.9319 6.26272 27.0354 6.13557 27.142 6.00455C28.2968 4.62121 29.22 4.33105 30.9515 4.81714Z" fill="#086D1D"/>
</svg>
