<svg width="24" height="24" viewBox="0 0 24 24" fill="none" xmlns="http://www.w3.org/2000/svg">
<path d="M3.68291 15.1484C3.85933 15.1475 3.85933 15.1475 4.03931 15.1466C4.43813 15.1441 4.83691 15.1402 5.23571 15.136C5.44562 15.1339 5.44562 15.1339 5.65976 15.1317C7.68776 15.1098 9.71562 15.0765 11.7435 15.043C12.6925 15.0273 13.6416 15.0124 14.5907 14.9996C15.5155 14.9871 16.4404 14.9724 17.3652 14.9563C17.7162 14.9505 18.0672 14.9455 18.4182 14.9412C18.9069 14.9352 19.3953 14.9264 19.8839 14.917C20.1005 14.9152 20.1005 14.9152 20.3214 14.9134C21.0461 14.8965 21.5724 14.8783 22.1525 14.394C22.5171 13.8472 22.5533 13.3969 22.4493 12.7617C22.1831 12.3447 22.0013 12.0925 21.5589 11.8714C21.1494 11.8564 20.7437 11.8506 20.3341 11.8516C20.142 11.8513 20.142 11.8513 19.9459 11.851C19.516 11.8507 19.086 11.8517 18.656 11.8528C18.5075 11.853 18.359 11.8532 18.2059 11.8534C15.5763 11.8571 12.9474 11.891 10.3182 11.9363C10.1444 11.9392 9.97065 11.9421 9.79162 11.9451C8.78751 11.9622 7.78362 11.9837 6.77968 12.0088C6.24986 12.0203 5.72012 12.0262 5.19021 12.032C4.8398 12.0388 4.4894 12.0457 4.139 12.0528C3.97679 12.0533 3.81458 12.0538 3.64745 12.0544C2.52706 12.0832 2.52706 12.0832 1.94687 12.5278C1.54428 13.0924 1.44524 13.3983 1.52589 14.0972C2.11216 15.0445 2.63113 15.1584 3.68291 15.1484Z" fill="#FFFDFB"/>
</svg>
