<svg width="24" height="24" viewBox="0 0 24 24" fill="none" xmlns="http://www.w3.org/2000/svg">
<path d="M12.4923 3.04699C13.0085 3.22231 13.304 3.53304 13.553 4.01126C13.6056 4.3519 13.5982 4.68584 13.5891 5.02976C13.5878 5.13074 13.5865 5.23172 13.5852 5.33576C13.5677 6.23768 13.5047 7.13604 13.436 8.03529C13.3364 9.36063 13.3009 10.6864 13.2637 12.0147C13.3293 12.0135 13.3948 12.0123 13.4624 12.011C14.0904 11.9995 14.7184 11.9881 15.3464 11.977C15.669 11.9712 15.9916 11.9654 16.3142 11.9595C17.0495 11.9459 17.7848 11.9338 18.5201 11.9235C18.8347 11.9186 19.1493 11.912 19.4639 11.9051C19.6437 11.9024 19.8236 11.8997 20.0034 11.8972C20.0823 11.8949 20.1612 11.8927 20.2424 11.8904C20.8989 11.8843 21.4233 12.0122 21.9361 12.4486C22.2637 12.8457 22.2653 13.2063 22.2574 13.7018C22.2176 14.0711 22.1005 14.2543 21.8457 14.5218C21.3319 14.8571 20.8756 14.9652 20.2697 14.9663C20.1934 14.9679 20.1171 14.9695 20.0385 14.9711C19.7891 14.9758 19.5398 14.9779 19.2904 14.9798C19.1164 14.9825 18.9424 14.9853 18.7684 14.9883C16.9337 15.0165 15.0985 15.0136 13.2637 15.0039C13.2661 15.0723 13.2685 15.1408 13.271 15.2112C13.2941 15.8648 13.3168 16.5184 13.3391 17.172C13.3507 17.5079 13.3623 17.8437 13.3742 18.1794C13.4049 19.0494 13.4326 19.9194 13.4566 20.7895C13.4595 20.8877 13.4624 20.986 13.4654 21.0871C13.4722 21.3399 13.477 21.5925 13.4807 21.8453C13.4838 21.9494 13.4838 21.9494 13.4869 22.0555C13.4911 22.6898 13.3353 23.1957 12.9262 23.6763C12.529 24.004 12.1689 24.0045 11.6734 23.9987C11.3152 23.9586 11.1178 23.8248 10.853 23.5859C10.532 23.1432 10.4566 22.7624 10.4491 22.2242C10.4474 22.1255 10.4458 22.0268 10.4442 21.9251C10.4429 21.8184 10.4416 21.7116 10.4402 21.6016C10.4384 21.4899 10.4367 21.3783 10.4348 21.2632C10.4292 20.9044 10.4241 20.5457 10.4191 20.1869C10.3949 18.4899 10.3559 16.7957 10.2745 15.1003C7.90531 15.082 7.90531 15.082 5.5375 15.1486C4.10913 15.2151 4.10913 15.2151 3.51254 15.2269C3.44341 15.2298 3.37428 15.2326 3.30306 15.2356C2.816 15.2412 2.54789 15.1179 2.17461 14.8111C1.89928 14.5019 1.76468 14.1629 1.74069 13.7504C1.76468 13.3378 1.89928 12.9989 2.17461 12.6897C2.6024 12.3579 2.89029 12.2532 3.42929 12.2347C3.52827 12.2306 3.52827 12.2306 3.62925 12.2265C3.85149 12.2181 4.07367 12.2126 4.29601 12.2075C4.46044 12.2029 4.62487 12.1983 4.7893 12.1936C5.32592 12.1795 5.8626 12.1692 6.39932 12.1593C7.7251 12.1349 9.04715 12.0936 10.3709 12.0147C10.3719 11.9583 10.3729 11.9019 10.3739 11.8438C10.3968 10.5502 10.4213 9.25657 10.4481 7.96301C10.4598 7.39509 10.4704 6.8272 10.4784 6.25922C10.4833 5.93173 10.4905 5.60431 10.4975 5.27686C10.4984 5.16336 10.4994 5.04986 10.5005 4.93291C10.5205 4.14192 10.6708 3.83434 11.2026 3.25189C11.644 2.97393 11.9837 2.96075 12.4923 3.04699Z" fill="#B1AFB0"/>
</svg>
