<svg width="55" height="51" viewBox="0 0 55 51" fill="none" xmlns="http://www.w3.org/2000/svg">
<path d="M21.3526 0.188321C24.3819 0.0511966 26.8507 -0.212741 29.8673 0.316251C33.4915 0.951848 35.4385 1.61542 36.2296 1.83481C37.8607 2.28721 39.792 3.16157 41.3848 3.98813C42.957 4.80398 44.6731 5.81978 45.7745 6.72445C47.8049 8.39224 49.2131 9.95446 50.3302 11.785C51.3494 13.4553 52.4544 15.7799 53.3302 19.3524C53.6909 20.824 53.9565 22.7254 54.0938 24.5252C54.2286 26.2915 54.2682 28.3137 54.0401 29.9588C53.7806 31.8299 52.7211 36.077 49.503 40.0594C47.8858 42.0608 46.6195 43.7161 43.2872 45.5262C41.0757 46.7275 37.7498 48.4687 33.9991 49.6219C31.0568 50.5265 26.7616 51.4056 21.9874 50.6073C18.7142 50.0599 13.7188 49.6684 9.84968 46.2069C7.76821 44.3446 4.91284 42.6396 2.84187 38.3289C2.12243 36.8314 1.44574 35.488 1.00789 34.4784C0.54771 33.4172 0.0733601 32.1325 0.0244886 30.6268C-0.0220789 29.1902 -0.0107981 27.4516 0.133864 25.8739C0.162209 25.5648 0.199668 25.2457 0.243239 24.9237C0.271479 23.6665 0.351999 22.3862 0.522535 21.2684C0.77223 19.6319 1.37327 18.042 1.57234 17.409C1.7074 16.9795 2.14473 15.1873 2.90144 13.7577C3.70279 12.2439 4.56978 11.055 5.05086 10.3397C6.07619 8.81504 7.55147 7.38121 8.50105 6.47152C8.79225 6.19256 9.48368 5.49775 10.1153 4.94711C10.7522 4.39194 11.7611 3.58419 13.0177 3.07309C12.9142 3.11519 12.9248 3.12294 13.4561 2.80453C13.8628 2.56085 14.4807 2.18867 15.21 1.82309C16.7162 1.06816 18.7593 0.305715 21.3526 0.188321Z" fill="#BD3636"/>
</svg>
